<?xml version="1.0" standalone="no"?>
<!DOCTYPE svg PUBLIC "-//W3C//DTD SVG 20010904//EN"
 "http://www.w3.org/TR/2001/REC-SVG-20010904/DTD/svg10.dtd">
<svg version="1.0" xmlns="http://www.w3.org/2000/svg"
 width="225.000000pt" height="225.000000pt" viewBox="0 0 225.000000 225.000000"
 preserveAspectRatio="xMidYMid meet">
<metadata>
Created by potrace 1.10, written by Peter Selinger 2001-2011
</metadata>
<g transform="translate(0.000000,225.000000) scale(0.100000,-0.100000)"
fill="#000000" stroke="none">
<path d="M975 2039 c14 -18 37 -53 50 -78 84 -166 70 -312 -46 -481 -71 -103
-135 -240 -156 -332 -10 -43 -21 -78 -24 -78 -9 0 -29 117 -29 171 0 86 33
179 84 237 23 26 16 28 -27 5 -82 -42 -143 -112 -200 -228 -73 -149 -101 -274
-101 -450 0 -105 4 -145 23 -210 56 -200 172 -335 350 -404 28 -12 51 -17 51
-12 0 6 -9 12 -19 16 -29 9 -81 72 -108 132 -50 109 -40 287 23 413 32 62 100
140 124 140 14 0 12 -11 -4 -29 -32 -37 -47 -145 -27 -196 7 -16 10 -9 20 33
12 58 36 110 87 186 63 98 68 185 13 271 -16 26 -32 45 -35 42 -3 -3 6 -39 20
-81 29 -82 28 -101 -6 -178 l-21 -47 -46 6 c-45 5 -48 4 -90 -42 -104 -112
-147 -317 -102 -487 10 -41 13 -68 7 -68 -5 0 -36 26 -67 59 -137 141 -194
381 -150 632 22 130 91 296 154 373 l24 30 -1 -125 c-1 -100 2 -130 16 -156
37 -67 56 -54 99 72 35 103 77 188 130 266 93 137 113 194 113 314 -1 63 -7
109 -21 153 -22 65 -21 69 13 49 85 -48 201 -173 248 -265 56 -111 68 -159 73
-299 6 -138 -2 -201 -38 -326 -22 -74 -19 -103 12 -112 42 -14 142 97 181 200
9 21 20 41 25 42 13 5 50 -80 75 -172 27 -97 26 -272 -2 -374 -33 -118 -99
-228 -177 -295 l-35 -29 8 39 c3 21 11 47 15 56 14 27 10 145 -7 211 -18 70
-33 103 -64 135 -17 18 -25 20 -41 12 -23 -13 -25 -9 -34 79 -8 85 -51 177
-112 242 -54 58 -135 109 -173 109 -20 0 -9 -11 52 -51 89 -58 135 -110 175
-195 26 -54 28 -69 27 -169 -1 -76 -6 -123 -18 -154 -9 -24 -14 -46 -11 -49
17 -17 95 112 95 157 0 37 17 23 43 -37 79 -175 52 -360 -68 -471 -24 -22 -39
-41 -33 -41 29 0 159 89 218 150 219 224 258 544 104 866 l-46 99 -13 -50
c-28 -114 -79 -210 -139 -263 -41 -35 -61 -41 -53 -14 39 118 59 203 67 281
31 332 -105 585 -409 758 -42 24 -79 43 -84 43 -5 0 3 -14 18 -31z"/>
</g>
</svg>
